<svg width="48" height="48" fill="none" xmlns="http://www.w3.org/2000/svg"><path d="M38.664 0H9.337A8.837 8.837 0 0 0 .5 8.837V28.07a8.837 8.837 0 0 0 8.837 8.837h4.208c.2 0 .363.162.363.363v9.488c0 1.122 1.372 1.666 2.14.848l9.956-10.585a.363.363 0 0 1 .264-.114h12.396a8.837 8.837 0 0 0 8.836-8.837V8.837A8.837 8.837 0 0 0 38.664 0z" fill="#F76631"/><path d="M17.626 33.61c0-.21-.158-.381-.351-.381H13.2c-4.725 0-8.555-4.167-8.555-9.306V3.668c0-.87.11-1.711.315-2.51A8.834 8.834 0 0 0 .5 8.837v19.235a8.837 8.837 0 0 0 8.837 8.836h4.208c.2 0 .363.163.363.363v9.488c0 1.122 1.372 1.666 2.14.848l1.578-1.676V33.61z" fill="#DD451C"/><path d="M33.929 11.468a5.745 5.745 0 0 0-8.125 0l-1.267 1.267a.774.774 0 0 1-1.094 0l-1.248-1.247a5.745 5.745 0 0 0-8.124 8.125l9.372 9.372a.774.774 0 0 0 1.095 0l9.39-9.392a5.745 5.745 0 0 0 0-8.125z" fill="#F76631"/><path d="M33.929 11.468a5.745 5.745 0 0 0-8.125 0l-1.267 1.267a.774.774 0 0 1-1.094 0l-1.248-1.247a5.745 5.745 0 0 0-8.124 8.125l9.372 9.372a.774.774 0 0 0 1.095 0l9.39-9.392a5.745 5.745 0 0 0 0-8.125z" fill="#FFF5F5"/><path d="M17.076 19.613a5.745 5.745 0 0 1 2.56-9.606 5.745 5.745 0 0 0-5.565 9.606l9.373 9.372a.774.774 0 0 0 1.094 0l.956-.955-8.418-8.417z" fill="#DCE6EB"/></svg>