<svg xmlns="http://www.w3.org/2000/svg" width="80" height="80" viewBox="0 0 80 80" fill="none"><circle cx="40" cy="40" r="40" fill="#FACFB1"></circle><path d="M61.7295 36.0143C61.7848 36.0143 61.8953 35.959 61.9506 35.9037C61.9506 35.9037 63.0559 34.1906 65.2112 32.4221C67.2007 30.8194 70.5165 28.8299 75.1034 28.4984C75.214 28.4984 75.3245 28.3878 75.3245 28.222C75.3245 28.1115 75.214 28.001 75.0482 28.001C70.2955 28.3326 66.8691 30.3773 64.8243 32.0905C62.6138 33.9142 61.5637 35.6274 61.5085 35.6827C61.4532 35.7932 61.4532 35.959 61.5637 36.0143C61.619 35.959 61.6743 36.0143 61.7295 36.0143Z" fill="#AE703D"></path><path d="M62.3935 36.8985C62.4488 36.8985 62.5593 36.8432 62.6146 36.788C62.6698 36.7327 66.7594 31.3721 74.7174 31.8695C74.8279 31.8695 74.9384 31.7589 74.9937 31.6484C74.9937 31.5379 74.8832 31.4274 74.7727 31.3721C70.4621 31.0958 67.312 32.4774 65.3778 33.6932C63.333 35.0195 62.283 36.4011 62.2277 36.4564C62.1724 36.5669 62.1724 36.7327 62.283 36.788C62.283 36.8985 62.3382 36.8985 62.3935 36.8985Z" fill="#AE703D"></path><path d="M62.7244 38.1146C62.7796 38.1146 62.8349 38.1146 62.8902 38.0593C62.9454 38.0041 68.0297 33.5829 75.7114 35.7382C75.8219 35.7935 75.9877 35.683 75.9877 35.5724C76.043 35.4619 75.9325 35.2961 75.8219 35.2961C71.6771 34.1356 68.2508 34.854 66.1507 35.683C63.8849 36.5672 62.5586 37.6725 62.5033 37.7277C62.3928 37.8383 62.3928 37.9488 62.5033 38.0593C62.6138 38.0593 62.6691 38.1146 62.7244 38.1146Z" fill="#AE703D"></path><path d="M21.6082 45.354C21.6082 45.354 22.7687 39.4408 16.9107 37.8934C11.0527 36.346 3.42627 44.0277 4.03418 50.1067C4.64209 56.2411 13.8712 57.7885 13.8712 57.7885C13.8712 57.7885 24.7029 57.5674 21.6082 45.354Z" fill="#AE703D"></path><path d="M52.0039 60.6621C52.0039 60.6621 53.7171 63.4253 52.7776 66.3543C51.8934 69.2833 51.5065 70.1675 52.0039 70.5544C52.5013 70.9412 56.0934 69.2833 57.6961 72.8755C59.2987 76.4676 58.0829 76.8545 58.0829 76.8545C58.0829 76.8545 52.1144 76.6334 50.1249 76.8545C48.1354 77.0755 46.4775 73.0965 46.8091 70.9965C47.1406 68.8412 50.5118 60.7726 52.0039 60.6621Z" fill="#AE703D"></path><path d="M10.4448 59.8884C10.1132 64.199 12.8212 74.3676 17.0765 75.4176C17.5186 75.5281 18.016 75.5281 18.5134 75.4176C22.9345 74.3676 27.4661 77.794 35.9768 77.1308C37.2479 77.0203 38.5742 76.8545 40.0663 76.5229C51.3402 74.0913 48.3007 67.3491 49.7376 64.199C51.1744 61.049 53.8271 58.7279 55.5956 56.3515C57.3088 53.9199 58.8009 51.1567 57.6403 48.0066C57.4745 47.5645 57.364 47.1224 57.2535 46.7356C56.9772 45.6303 57.0324 44.7461 57.143 44.1934C57.2535 43.5855 57.4193 43.3092 57.4193 43.3092C56.5903 36.2907 44.2112 29.4932 42.3874 29.2168C41.1716 29.0511 40.7848 29.1063 38.9058 29.8248C38.0216 30.1563 36.861 30.6537 35.0926 31.3169C34.0426 31.7037 33.0478 32.1458 32.0531 32.588C23.3213 36.6222 15.7502 42.8118 12.9869 46.6803C9.0632 52.3725 10.8316 55.0804 10.4448 59.8884Z" fill="#D0905C"></path><path d="M30.5602 35.13C30.5602 35.13 34.8155 35.2957 32.1628 38.3905C29.5101 41.4853 26.5259 41.8169 27.2443 44.3038C27.9627 46.7907 22.3258 47.7302 22.5469 45.1328C22.7679 42.5353 24.3153 40.6564 26.0285 37.7274C27.797 34.7984 30.5602 35.13 30.5602 35.13Z" fill="#E4A87F"></path><path d="M32.1636 32.588C32.1083 34.1354 36.4742 33.8038 38.3532 33.1959C40.1769 32.588 39.4032 30.5432 39.0716 29.7695C38.1874 30.1011 37.0268 30.5985 35.2584 31.2617C34.1531 31.7038 33.1584 32.1459 32.1636 32.588Z" fill="#E4A87F"></path><path d="M16.6895 49.996C16.6895 49.996 13.5947 48.6696 14.9763 46.6801C16.3026 44.6906 20.8343 40.9326 20.4474 44.8564C20.0053 48.7801 18.1263 50.217 16.6895 49.996Z" fill="#E4A87F"></path><path d="M42.2759 34.0801C42.2759 34.0801 42.3311 37.838 50.3444 43.5855C53.6603 45.9619 55.8708 46.6803 57.363 46.7356C57.0867 45.6303 57.1419 44.746 57.2525 44.1934L57.1419 44.1381C57.0867 44.0829 48.576 43.7513 42.2759 34.0801Z" fill="#AE703D"></path><path d="M54.9875 57.1802C54.9875 57.1802 52.0585 60.3855 50.1795 59.5565C48.3558 58.7828 44.9294 57.4565 44.9294 57.4565C44.9294 57.4565 41.9452 61.8776 39.7899 62.7618C36.8609 63.9224 36.0872 57.1802 36.0872 57.1802C36.0872 57.1802 33.7108 72.5436 36.7503 74.5331C37.524 75.0305 38.574 75.2515 39.6793 75.3068C43.8794 75.5279 47.8584 73.5383 50.29 70.112L52.6111 66.8514L54.9875 57.1802Z" fill="#AE703D"></path><path d="M36.4745 59.7223C36.4745 59.7223 37.414 55.9091 37.2482 52.0406C37.0825 48.1721 36.7509 46.1273 34.3745 45.3536C34.3745 45.3536 36.6956 44.4142 37.8561 48.4484C38.5193 50.8801 37.414 61.6566 37.414 61.6566C37.414 61.6566 36.143 61.2697 36.4745 59.7223Z" fill="#AE703D"></path><path d="M15.4743 68.233C15.6401 70.1672 16.4138 73.2067 17.1322 75.4173C17.5743 75.5278 18.0717 75.5278 18.5691 75.4173C22.9902 74.3673 27.5218 77.7936 36.0325 77.1305L36.7509 76.8542C36.7509 76.8542 33.4351 58.8933 29.1798 58.7828C29.1798 58.7828 26.7481 63.2039 22.1612 61.9328C17.5743 60.6618 16.1927 57.5117 16.1927 57.5117C16.1927 57.5117 15.198 64.8618 15.4743 68.233Z" fill="#AE703D"></path><path d="M47.7484 13.6875C47.7484 13.6875 45.5931 7.60846 45.0957 3.62944C44.5983 -0.349571 48.2457 -1.2338 51.1747 1.86099C54.1037 4.95578 56.038 14.7375 55.6511 20.3192C55.209 25.9561 47.9694 20.485 47.7484 13.6875Z" fill="#AE703D"></path><path d="M34.3191 1.9165C34.927 4.51391 35.3139 12.2509 37.3587 16.3957C39.4034 20.5405 42.443 21.701 43.1614 23.9669C43.2167 24.1879 43.2719 24.409 43.2719 24.5748C43.3272 25.0722 43.1614 25.5143 42.8851 25.9564C42.2772 27.0617 41.1719 28.1669 41.0614 30.9301C40.9508 35.2407 51.2852 42.5909 54.6563 43.6962C56.8116 44.4146 59.6301 43.9172 61.9512 42.8672C63.3328 42.2593 64.4933 41.4303 65.267 40.5461C66.6486 38.9434 68.3065 37.1197 69.9092 35.1302C69.9645 35.075 70.0197 34.9644 70.075 34.9092C70.6276 34.1907 71.0145 33.5276 71.0145 32.6986C71.0145 32.5328 70.9592 32.367 70.9592 32.146C70.7382 31.2065 70.2408 30.2117 69.6329 29.6038C68.0302 28.0012 67.0907 27.7248 65.3223 24.9616C62.2828 20.2642 59.2432 21.7563 57.6958 20.0431C56.2037 18.3299 51.2299 17.9984 51.2299 17.9984C49.7931 13.8535 44.1009 5.72972 41.0614 2.57967C38.0218 -0.570384 33.7112 -0.680913 34.3191 1.9165Z" fill="#D0905C"></path><path d="M51.9482 24.9061C51.9482 24.9061 53.3298 22.6403 56.8114 22.8614C60.293 23.0824 62.7247 28.2773 60.3483 29.1615C57.972 30.101 54.4903 28.3878 52.6666 28.8852C50.8429 29.3825 51.0639 26.7299 51.9482 24.9061Z" fill="#E4A87F"></path><path d="M58.1377 40.38C58.9667 41.651 60.3483 42.9221 62.0062 42.9221C63.7194 42.4247 64.6036 41.4852 65.5431 40.7668C67.9747 38.9431 69.1353 36.9536 70.0195 35.1299C70.0748 35.0193 70.13 34.9641 70.1853 34.9088C70.7379 34.1904 71.1248 33.5272 71.1248 32.6983C70.9037 32.2561 70.5721 31.814 70.13 31.3719C70.13 31.3719 68.4721 30.7087 66.8142 30.4877C65.7642 30.3772 64.6589 30.4324 63.9957 30.9851C62.172 32.4219 56.0929 30.8193 55.4298 32.7535C54.7113 34.7983 56.4245 37.8931 58.1377 40.38Z" fill="#E4A87F"></path><path d="M58.1376 33.3616C58.1928 33.3616 58.3034 33.3063 58.3586 33.2511C58.4139 33.1405 58.4139 32.9747 58.3034 32.9195C58.2481 32.8642 56.5902 31.7037 53.827 30.93C51.2848 30.2115 47.3611 29.6589 42.8294 31.2063C42.7189 31.2615 42.6084 31.3721 42.6636 31.5379C42.7189 31.6484 42.8294 31.7589 42.9952 31.7037C51.3401 28.8299 57.9165 33.3616 58.027 33.3616C58.027 33.3616 58.0823 33.3616 58.1376 33.3616Z" fill="#AE703D"></path><path d="M44.5988 34.6881C44.654 34.6881 44.654 34.6881 44.7093 34.6881C51.8384 31.0959 57.6964 34.4118 57.7516 34.4671C57.8622 34.5223 58.028 34.5223 58.0832 34.3565C58.1385 34.246 58.1385 34.0802 57.9727 34.0249C57.9174 33.9697 56.4253 33.1407 53.9937 32.6986C51.7831 32.3118 48.3015 32.2565 44.433 34.1907C44.3225 34.246 44.2672 34.4118 44.3225 34.5223C44.3777 34.6328 44.4883 34.6881 44.5988 34.6881Z" fill="#AE703D"></path><path d="M45.041 38.6668C45.0962 38.6668 45.1515 38.6668 45.2068 38.6115C51.4516 33.6378 57.8622 35.6825 57.9175 35.7378C58.028 35.7931 58.1938 35.7378 58.2491 35.572C58.3043 35.4615 58.2491 35.2957 58.0833 35.2404C58.028 35.2404 56.3701 34.6878 53.9385 34.7983C51.6727 34.9088 48.3015 35.572 44.9304 38.2247C44.8199 38.3352 44.8199 38.4457 44.8752 38.5563C44.9304 38.6115 44.9857 38.6668 45.041 38.6668Z" fill="#AE703D"></path><path d="M65.7096 39.551C65.8201 39.551 65.8754 39.551 65.9859 39.551C68.9149 39.1089 70.1307 34.6878 70.186 34.522C70.2412 34.4114 70.1307 34.2457 70.0202 34.2457C69.9096 34.1904 69.7438 34.3009 69.7438 34.4114C69.7438 34.4667 68.5833 38.6668 65.9306 39.1089C65.2675 39.2194 64.1622 38.7773 63.2227 37.9483C62.1174 37.0089 61.5095 35.9036 61.5095 34.7983C61.5095 34.6878 61.399 34.5772 61.2884 34.5772C61.1779 34.5772 61.0674 34.6878 61.0674 34.7983C61.0674 36.0141 61.7306 37.2852 62.9464 38.2799C63.8306 39.1089 64.8806 39.551 65.7096 39.551Z" fill="#D0905C"></path><path d="M55.9268 22.0876C56.4795 22.3639 56.3689 23.1928 55.761 23.3034C55.1531 23.4139 54.2136 23.5797 53.3294 24.0218C51.7268 24.7955 51.561 22.8613 52.6663 22.2533C53.3847 21.8112 55.0426 21.5902 55.9268 22.0876Z" fill="#AE703D"></path><path d="M42.8857 25.9562C43.4936 26.7299 44.4884 27.6141 46.0911 27.6141C48.0253 27.6141 48.3016 25.3483 48.3016 25.3483C48.3016 25.3483 47.6385 26.951 45.87 26.6747C44.6542 26.4536 43.77 25.3483 43.2726 24.6299C43.2726 25.1273 43.1068 25.5141 42.8857 25.9562Z" fill="#AE703D"></path><path d="M39.4594 77.2413C40.6752 78.015 44.2673 77.794 47.1963 77.5729C50.1806 77.3519 51.3411 77.0203 50.4569 74.036C49.6279 71.0518 47.5279 71.4939 47.3069 70.3333C47.3069 70.2781 47.3069 70.2781 47.3069 70.2228C47.0858 69.1175 47.0858 68.0122 48.6885 64.7517C50.3464 61.4358 50.5122 57.1252 50.5122 57.1252C48.1911 49.9961 42.4436 60.9937 41.7252 64.0332C41.0067 67.0728 40.841 69.3386 39.4041 70.6649C37.9672 72.0465 38.2435 76.4676 39.4594 77.2413Z" fill="#D0905C"></path><path d="M39.4594 77.2413C40.6752 78.015 44.2673 77.7939 47.1963 77.5729C50.1806 77.3518 51.3411 77.0202 50.4569 74.0359C49.6279 71.0517 47.5279 71.4938 47.3069 70.3333C47.3069 70.278 47.3069 70.278 47.3069 70.2227C46.699 70.1675 45.9253 70.1675 45.0963 70.4438C42.7752 71.1622 41.1725 69.7806 39.4041 70.7201C37.9672 72.0464 38.2435 76.4676 39.4594 77.2413Z" fill="#E4A87F"></path><path d="M48.522 77.4069C48.6325 77.4069 48.7431 77.3516 48.7431 77.2411C49.4615 73.9805 48.0799 72.8753 48.0246 72.82C47.9141 72.7647 47.7483 72.7647 47.693 72.8753C47.6378 72.9858 47.6378 73.1516 47.7483 73.2068C47.7483 73.2068 48.9088 74.2016 48.3009 77.1306C48.2457 77.2411 48.3009 77.3516 48.522 77.4069C48.4667 77.4069 48.4667 77.4069 48.522 77.4069Z" fill="#D0905C"></path><path d="M45.9805 77.5728C46.091 77.5728 46.2016 77.5176 46.2016 77.407C46.92 74.1465 45.5384 73.0964 45.4831 73.0412C45.3726 72.9859 45.2068 72.9859 45.1515 73.0964C45.0963 73.207 45.0963 73.3728 45.2068 73.428C45.2068 73.428 46.3673 74.3675 45.7594 77.2965C45.7042 77.407 45.8147 77.5728 45.9805 77.5728C45.9252 77.5728 45.9805 77.5728 45.9805 77.5728Z" fill="#D0905C"></path><path d="M43.3829 77.7386C43.4934 77.7386 43.6039 77.6833 43.6039 77.5728C44.3224 74.3122 42.9408 73.1516 42.8855 73.0964C42.775 72.9859 42.6092 73.0411 42.5539 73.1516C42.4434 73.2622 42.4986 73.428 42.6092 73.4832C42.6092 73.4832 43.7697 74.5333 43.1618 77.4622C43.1065 77.5728 43.2171 77.6833 43.3829 77.7386C43.3276 77.7386 43.3829 77.7386 43.3829 77.7386Z" fill="#D0905C"></path><path d="M28.7926 79.4519C30.6716 79.9493 40.6191 80.7783 40.8954 78.3467C41.1718 75.915 38.9059 73.6492 37.9112 73.0966C37.5243 72.8755 37.3033 72.3781 37.248 71.7702C37.1375 70.886 37.1375 69.7807 37.0269 68.786C36.8059 67.3491 36.5296 60.8832 36.419 58.949C36.419 58.3411 36.3085 57.7884 36.0875 57.2358C34.5953 53.4778 30.0637 55.191 28.7926 59.9437C27.7426 63.9227 29.1242 69.1176 29.4005 71.9913C29.511 72.8755 29.4558 73.4834 29.29 73.815C28.3505 75.2519 26.9136 78.9546 28.7926 79.4519Z" fill="#D0905C"></path><path d="M28.7926 79.4517C30.6716 79.9491 40.6191 80.7781 40.8954 78.3464C41.1718 75.9148 38.9059 73.649 37.9112 73.0964C37.5243 72.8753 37.3033 72.3779 37.248 71.77C36.5848 71.77 35.8664 71.8253 35.0374 72.0463C32.7716 72.7095 31.0584 71.8805 29.4005 71.9911C29.511 72.8753 29.4558 73.4832 29.29 73.8148C28.3505 75.2517 26.9136 78.9543 28.7926 79.4517Z" fill="#E4A87F"></path><path d="M38.2422 79.7283C38.3528 79.7283 38.4633 79.673 38.4633 79.5625C39.1817 76.3019 37.8001 75.1414 37.7449 75.0861C37.6343 74.9756 37.4685 75.0309 37.4133 75.1414C37.3027 75.2519 37.358 75.4177 37.4685 75.473C37.4685 75.473 38.6291 76.523 38.0212 79.452C37.9659 79.5625 38.0212 79.673 38.2422 79.7283C38.187 79.7283 38.187 79.7283 38.2422 79.7283Z" fill="#D0905C"></path><path d="M35.7002 79.949C35.8108 79.949 35.9213 79.8938 35.9213 79.7832C36.6397 76.5226 35.2581 75.3621 35.2029 75.3068C35.0923 75.1963 34.9265 75.2516 34.8713 75.3621C34.7608 75.4726 34.816 75.6384 34.9265 75.6937C34.9265 75.6937 36.0871 76.7437 35.4792 79.6727C35.4239 79.7832 35.5345 79.949 35.7002 79.949C35.645 79.949 35.7002 79.949 35.7002 79.949Z" fill="#D0905C"></path><path d="M33.1583 79.949C33.2688 79.949 33.3793 79.8938 33.3793 79.7832C34.0977 76.5226 32.7161 75.3621 32.6609 75.3068C32.5503 75.1963 32.3846 75.2516 32.3293 75.3621C32.2188 75.4726 32.274 75.6384 32.3846 75.6937C32.3846 75.6937 33.5451 76.7437 32.9372 79.6727C32.8819 79.7832 32.9372 79.949 33.1583 79.949C33.103 79.949 33.103 79.949 33.1583 79.949Z" fill="#D0905C"></path><path d="M14.9765 52.5933C14.9765 52.5933 10.4448 56.5723 10.2238 59.446C10.0027 62.375 12.6001 69.6699 12.6001 69.6699C12.6001 69.6699 10.1133 67.9567 8.17901 71.0515C6.24477 74.091 5.74739 76.7437 6.63162 76.7989C7.51584 76.8542 15.9713 76.7437 18.3476 76.191C20.6687 75.6384 20.1161 71.4936 18.3476 69.6699C16.5792 67.8462 19.5082 58.5618 14.9765 52.5933Z" fill="#D0905C"></path><path d="M54.7678 25.0717C55.3204 24.7401 55.9283 24.6849 56.5362 24.7954C57.3099 24.9612 58.3599 25.4586 58.8021 26.7849C59.5758 28.8849 56.2046 29.106 54.602 27.1717C53.773 26.0112 54.2151 25.4033 54.7678 25.0717Z" fill="#381314"></path><path d="M55.3205 25.9009C55.3758 26.2878 55.7626 26.5641 56.1495 26.5089C56.5363 26.4536 56.8126 26.0667 56.7574 25.6799C56.7021 25.293 56.3153 25.0167 55.9284 25.072C55.5416 25.1272 55.2653 25.5141 55.3205 25.9009Z" fill="#6A3E43"></path><path d="M57.3638 26.6745C57.419 26.8955 57.5848 27.006 57.8059 26.9508C58.0269 26.8955 58.1375 26.7297 58.0822 26.5087C58.0269 26.2876 57.8611 26.1771 57.6401 26.2323C57.4743 26.2876 57.3638 26.4534 57.3638 26.6745Z" fill="#6A3E43"></path><path d="M66.4824 30.5981C66.593 32.6982 69.0246 31.7034 68.5825 33.2508C68.4719 33.6377 69.0798 34.5772 69.9088 35.1298C69.9641 35.0745 70.0193 34.964 70.0746 34.9087C70.6272 34.1903 71.0141 33.5271 71.0141 32.6982C71.0141 32.5324 70.9588 32.3666 70.9588 32.1455C70.8483 31.7587 70.7378 31.3166 70.5167 30.9297C70.3509 30.5429 70.1299 30.2113 69.9088 29.935C69.7983 29.8244 69.6877 29.7139 69.5772 29.6034C68.6377 29.4929 67.4219 29.4376 66.814 29.8244C66.6482 30.0455 66.4824 30.3218 66.4824 30.5981Z" fill="#381314"></path><path d="M68.2519 31.2063C69.1361 31.3721 70.0756 31.2616 70.5729 30.9852C70.4072 30.5984 70.1861 30.2668 69.965 29.9905C69.4677 29.88 68.8045 29.88 68.2519 29.9352C67.3124 30.0458 67.2571 31.0958 68.2519 31.2063Z" fill="#6A3E43"></path><path d="M46.9188 21.0375C46.9188 21.0375 45.9241 17.7217 44.1003 14.2401C42.2214 10.7584 41.3371 9.54262 41.0056 7.88469C40.6187 6.22677 36.0318 1.19774 35.1476 1.52932C34.3186 1.86091 35.6449 5.78466 35.6449 7.33205C35.7002 8.87945 37.0818 15.7322 39.2924 17.6664C41.5582 19.6559 42.9951 22.4744 44.653 23.2481C46.3109 24.0771 47.4162 22.5297 46.9188 21.0375Z" fill="#E4A87F"></path></svg>