<svg xmlns="http://www.w3.org/2000/svg" width="80" height="80" viewBox="0 0 80 80" fill="none"><circle cx="40" cy="40" r="40" fill="#B6BE97"></circle><path d="M44.0894 33.387C44.0894 33.387 45.8063 35.872 48.9691 35.872C52.1319 35.872 51.3186 35.7365 52.9452 35.3298C54.6169 34.9232 52.4933 34.2454 53.9844 34.1551C55.4754 34.0647 56.8309 33.387 56.8309 32.167C56.8309 30.9471 52.4933 29.0946 50.8668 28.7783C49.195 28.462 44.7671 30.5856 44.0894 33.387Z" fill="#4D561E"></path><path d="M60.2646 28.6879C59.5417 29.2301 56.6952 29.2301 56.6952 29.2301C56.0626 30.0433 55.2494 29.6819 53.1258 29.4108C51.0474 29.1397 49.0141 30.1337 47.4779 30.7663C45.9417 31.3536 43.8181 35.8267 38.7576 36.5948C33.7424 37.3629 34.1038 38.0859 34.1038 38.0859C33.3809 42.2879 24.254 46.6254 24.254 46.6254C24.254 46.6254 22.7629 50.9178 23.2148 56.2493C23.4407 58.7344 24.0732 61.4905 25.5191 64.1111C29.9922 72.244 36.1822 69.8042 39.2095 67.0028C42.7337 63.7497 39.8872 60.5417 39.8872 60.5417L42.5078 58.4633C46.8905 62.2135 44.5862 74.7291 32.0254 74.0965C25.7902 73.6447 21.0008 68.7198 18.2447 61.5357C17.2055 58.8248 16.4825 55.8427 16.0307 52.6347C15.2626 46.8965 15.5337 40.5709 16.9344 34.3357C17.9284 29.953 19.555 26.248 21.4978 23.0852C22.04 22.1815 22.6274 21.3683 23.2148 20.555C23.7118 19.9224 24.2088 19.2898 24.751 18.7025C25.7902 17.5277 26.8294 16.4885 27.959 15.5397C28.7271 14.9071 29.45 14.2746 30.2181 13.7324C31.1669 13.0094 32.161 12.4221 33.1098 11.8347C33.4261 11.654 33.7424 11.4732 34.0135 11.3377C34.9623 10.8407 35.9111 10.3888 36.8148 10.0274C37.357 9.80146 37.854 9.62073 38.3962 9.44C39.2998 9.12372 40.2035 8.89781 41.0168 8.71708C41.9656 8.49116 42.8241 8.4008 43.5922 8.35562C43.6374 8.35562 43.6826 8.35562 43.7277 8.35562C44.9025 8.31043 45.9869 8.35562 46.9809 8.44598C51.4992 8.89781 54.1198 10.3888 54.1198 10.3888C56.2886 12.8739 58.0055 17.5277 59.1351 21.3231C60.1291 24.6214 60.6713 27.2872 60.6713 27.2872C60.6713 27.2872 60.9876 28.1457 60.2646 28.6879Z" fill="#717E43"></path><path d="M79.874 17.0758C79.8288 17.2113 79.7837 17.3469 79.7385 17.4824C79.5126 18.0698 79.1511 18.7024 78.7896 19.3349C78.4734 19.9223 78.1571 20.5097 77.9764 21.0971C77.2082 23.1755 64.1052 28.01 60.5358 27.3775C60.4003 27.3323 60.2647 27.3323 60.1743 27.2871C57.1923 26.2027 54.165 10.3887 54.165 10.3887C54.165 10.3887 55.7916 10.5695 56.1983 9.93692C56.2434 9.89174 56.2434 9.84656 56.2886 9.80137C56.4694 9.214 56.1079 7.85851 56.3338 6.77413C56.4694 6.27712 56.6953 5.87047 57.1471 5.55419C58.6381 4.56017 59.4966 5.012 62.2527 6.0512C65.0541 7.09041 67.494 7.31632 69.4368 7.18077C71.3345 7.04522 74.0003 7.9037 75.3557 10.0273C76.7112 12.1509 77.9764 14.7263 79.4674 15.5396C80.0548 15.8107 80.0999 16.3981 79.874 17.0758Z" fill="#717E43"></path><path d="M62.2984 11.0665C62.2532 11.1117 61.0785 12.7383 59.3163 12.7835C58.1416 12.8287 56.8765 11.2925 56.1987 9.8918C56.2439 9.84661 56.2439 9.80143 56.2891 9.75625C56.4698 9.16887 56.1084 7.81339 56.3343 6.729C56.3795 6.81937 57.6898 11.2473 59.0452 11.8347C60.4459 12.422 62.2532 11.0665 62.2984 11.0665Z" fill="#4D561E"></path><path d="M30.5349 28.5974C29.3601 25.2538 28.0046 25.0279 25.5648 20.5548C25.2033 19.8771 24.9322 19.2445 24.7515 18.7023C25.7907 17.5276 26.8299 16.4884 27.9594 15.5396C27.8239 17.7987 28.1402 20.4193 29.7216 23.6724C31.6644 27.5582 31.7548 31.9409 30.5349 28.5974Z" fill="#4D561E"></path><path d="M34.7822 24.8474C32.5683 22.5882 31.3031 20.1484 30.1284 17.3018C29.6314 16.0819 29.8573 14.7716 30.2639 13.6872C31.2128 12.9643 32.2068 12.3769 33.1556 11.7896C33.4719 12.4673 33.6075 13.5517 33.6978 14.9072C33.8786 17.5278 33.246 17.9796 33.7882 20.0128C34.3304 22.0912 36.951 27.1065 34.7822 24.8474Z" fill="#4D561E"></path><path d="M26.6025 26.9706C24.6144 25.9314 23.033 24.6211 21.542 23.0849C22.0842 22.1813 22.6716 21.368 23.2589 20.5547C23.3945 21.2324 23.5752 21.8198 24.1626 22.6783C25.3373 24.4404 29.4038 28.4165 26.6025 26.9706Z" fill="#4D561E"></path><path d="M46.0324 15.9009C45.0384 18.883 45.2643 13.1899 44.8576 11.1115C44.5865 9.71087 44.1799 9.21386 43.6377 8.31021C43.6829 8.31021 43.7281 8.31021 43.7732 8.31021C44.948 8.26502 46.0324 8.31021 47.0264 8.40057C47.0716 10.976 46.8909 13.3707 46.0324 15.9009Z" fill="#4D561E"></path><path d="M40.9713 24.2147C40.6551 24.3503 39.7966 23.2659 38.6218 21.5941C37.5375 20.0579 38.0345 18.5217 36.7242 16.7596C35.4591 14.9974 35.188 15.9915 34.2843 12.8287C34.1036 12.1961 34.0132 11.6991 34.0584 11.3376C35.0072 10.8406 35.9561 10.3888 36.8597 10.0273C36.9501 10.2984 36.9953 10.6599 36.9501 11.2473C36.7694 14.0486 40.5195 15.7204 40.2484 19.0639C39.9773 22.4074 42.2816 23.7177 40.9713 24.2147Z" fill="#4D561E"></path><path d="M43.6367 21.368C42.5523 20.0577 42.5523 18.8377 42.1005 17.3919C41.6487 15.946 40.0221 13.9128 38.8925 11.2922C38.5762 10.5693 38.4407 9.93673 38.3955 9.43972C39.2992 9.12344 40.2028 8.89753 41.0161 8.7168C41.0161 8.80716 41.0161 8.94271 41.0161 9.03308C40.9709 10.7952 42.9138 13.5514 43.6367 15.7201C44.4048 17.8437 44.7663 22.6783 43.6367 21.368Z" fill="#4D561E"></path><path d="M52.0413 20.9164C52.0413 20.9164 45.2639 23.04 45.7609 26.1576C46.2579 29.2752 50.8666 28.7782 50.8666 28.7782C50.8666 28.7782 47.6134 27.4679 48.7882 25.8414C49.9177 24.2148 55.4752 21.8653 55.7011 20.555C55.927 19.2447 54.5264 18.4766 54.5264 18.4766C54.5264 18.4766 54.3456 19.8772 52.0413 20.9164Z" fill="#4D561E"></path><path d="M60.2649 28.6878C59.542 29.23 56.6955 29.23 56.6955 29.23C56.063 30.0433 55.2497 29.6818 53.1261 29.4107C51.0477 29.1396 49.0144 30.1336 47.4782 30.7662C45.942 31.3536 43.8184 35.8266 38.7579 36.5948C33.7427 37.3629 34.1041 38.0858 34.1041 38.0858C33.3812 42.2878 24.2543 46.6253 24.2543 46.6253C24.2543 46.6253 22.7633 50.9177 23.2151 56.2493C21.7241 58.915 20.233 61.626 18.1998 61.5808C17.1606 58.8699 16.4377 55.8878 15.9858 52.6798C16.7991 50.4207 18.2902 49.6526 19.6005 47.9808C21.0915 46.0831 19.7812 39.3509 19.6005 38.6732C19.736 39.2605 21.7241 40.119 23.441 39.125C27.643 36.6851 21.6337 26.2027 24.7061 29.7722C35.0078 41.4745 40.0231 28.4167 48.7885 27.7389C57.5088 27.1064 59.045 21.4585 59.0902 21.3682C60.0842 24.6665 60.6264 27.3323 60.6264 27.3323C60.6264 27.3323 60.9879 28.1456 60.2649 28.6878Z" fill="#4D561E"></path><path d="M78.7897 19.3348C78.4734 19.9222 78.1572 20.5096 77.9764 21.0969C77.2083 23.1753 64.1053 28.0099 60.5359 27.3773L59.4515 25.4345L59.1804 21.3229C59.1804 21.3229 59.2708 20.4192 59.0449 19.1541C58.8641 17.889 56.6953 12.0152 56.605 11.8345C56.6953 12.0152 60.31 17.0305 60.9425 19.2444C61.5751 21.5036 64.7831 23.1753 67.3133 22.091C69.8887 21.0518 73.0515 21.5488 76.395 20.5547C77.4342 20.2836 78.2023 19.8318 78.7897 19.3348Z" fill="#4D561E"></path><path d="M55.7919 17.9341C55.7919 17.9341 57.5088 18.1148 58.2318 20.645C58.9547 23.2205 57.8251 26.067 55.1142 26.7447C52.4032 27.4225 50.0085 26.7447 50.0085 26.7447C50.0085 26.7447 48.2012 25.2085 52.2225 23.3108C56.2437 21.4132 55.7919 17.9341 55.7919 17.9341Z" fill="#4D561E"></path><path d="M20.5039 29.998C20.5039 29.998 19.058 35.9622 19.9617 40.3449C20.8653 44.7276 21.9497 47.9356 21.9497 47.9356L25.6095 45.5409C25.6095 45.5409 21.9949 33.5675 20.5039 29.998Z" fill="#4D561E"></path><path d="M40.4292 60.9932C40.4292 61.0384 40.4292 60.9932 40.4292 60.9932L40.384 60.9029L40.2936 60.8125C40.2485 60.7221 40.1581 60.6769 40.1129 60.5866C39.9774 60.451 39.8418 60.3155 39.7063 60.1799C39.4352 59.9088 39.1189 59.6829 38.8026 59.457C38.1701 59.0504 37.4923 58.7341 36.8598 58.5985C36.2272 58.463 35.5946 58.5082 34.9621 58.7341C34.8265 58.7793 34.6458 58.8696 34.5103 58.96C34.3747 59.0504 34.194 59.1407 34.0584 59.2311C33.7422 59.4118 33.5162 59.6377 33.2451 59.9088C32.7481 60.4059 32.3867 61.0384 32.1608 61.7613C31.9348 62.4391 31.8445 63.2072 31.9348 63.9301C32.0252 64.653 32.2511 65.376 32.6578 65.9181C33.0644 66.4603 33.5614 66.8218 34.194 66.9574C34.3295 67.0025 34.5103 67.0025 34.691 67.0025C34.7362 67.0025 34.7814 67.0025 34.8265 67.0025C34.8717 67.0025 34.9169 67.0025 34.9621 67.0025H35.0976H35.2332C35.5946 66.9574 36.0013 66.9122 36.3176 66.7766C36.9953 66.5507 37.6279 66.1441 38.0797 65.6019C38.3056 65.3308 38.4863 65.0145 38.6219 64.6982C38.7574 64.3819 38.8478 64.0205 38.8478 63.7042C38.893 63.3879 38.8026 63.0716 38.7123 62.8457C38.6671 62.7554 38.6219 62.7102 38.5315 62.5746C38.4412 62.4843 38.3056 62.3487 38.1249 62.3035C37.8538 62.1228 37.4923 62.0324 37.176 61.9421C36.8598 61.8969 36.4983 61.8969 36.2272 61.9872C35.9109 62.0776 35.685 62.2132 35.4591 62.4391C35.2332 62.665 35.0525 62.9813 34.9621 63.2976C34.8717 63.6138 34.8265 63.9301 34.8717 64.156C34.9169 64.2916 34.9621 64.3819 35.0073 64.4723C35.0976 64.5627 35.188 64.653 35.2784 64.6982C35.5043 64.8338 35.8206 64.8338 36.0013 64.7434C36.0917 64.6982 36.182 64.653 36.2724 64.6078C36.3176 64.5175 36.3628 64.4723 36.4079 64.3368C36.4983 63.9301 36.9049 63.659 37.3116 63.7946C37.7182 63.8849 37.9441 64.2464 37.899 64.653C37.8538 64.9693 37.7182 65.3308 37.4923 65.6471C37.2664 65.9181 36.9501 66.1441 36.6338 66.2796C36.3176 66.4152 35.9561 66.4603 35.6398 66.4603C35.3235 66.4603 34.9621 66.37 34.691 66.2344C34.3747 66.0989 34.1036 65.9181 33.8325 65.6471C33.6066 65.376 33.4259 65.0597 33.2903 64.7434C33.2 64.4271 33.1548 64.0657 33.1548 63.7494C33.1548 63.4331 33.2451 63.1168 33.2903 62.8457C33.4259 62.3035 33.697 61.7613 34.1036 61.3095C34.5103 60.8577 35.0525 60.451 35.6398 60.2703C36.2272 60.0444 36.8598 59.9992 37.402 60.0896C37.9893 60.1348 38.5315 60.3155 39.0737 60.5866C39.3448 60.7221 39.5707 60.9029 39.8418 61.0836C39.887 61.1288 39.9774 61.174 40.0226 61.2191L40.0677 61.2643L40.1129 61.3095C40.1581 61.3547 40.1581 61.3999 40.2033 61.3999C40.3388 61.5354 40.4292 61.7162 40.5196 61.8517C40.7003 62.168 40.7907 62.4843 40.8358 62.8005C40.881 63.1168 40.9262 63.4331 40.9262 63.7042C40.9262 64.2916 40.7907 64.8789 40.6099 65.4211C40.4292 65.9633 40.1581 66.4603 39.7966 66.9122C39.1189 67.8158 38.1249 68.5387 37.0857 68.9002C36.5435 69.0809 36.0013 69.2165 35.4591 69.3069L35.2784 69.352H35.0525C34.9621 69.352 34.9169 69.352 34.8265 69.352C34.7362 69.352 34.691 69.352 34.6006 69.352C34.2843 69.352 34.0132 69.3069 33.697 69.2617C33.1096 69.1713 32.5222 68.9454 31.98 68.5839C31.4378 68.2677 30.986 67.8158 30.6245 67.364C29.9016 66.4152 29.495 65.3308 29.3142 64.2012C29.1335 63.0716 29.2239 61.9421 29.495 60.8577C29.7661 59.7733 30.3083 58.7341 31.0764 57.8756C31.4378 57.4238 31.8897 57.0623 32.3415 56.7009C32.5674 56.5201 32.7933 56.3846 33.0644 56.249C33.3355 56.1135 33.5614 55.9779 33.8325 55.8424C34.3747 55.6165 34.9621 55.4357 35.5946 55.3906C36.182 55.3002 36.8146 55.3454 37.402 55.4357C37.9893 55.5261 38.5767 55.7068 39.0737 55.8876C39.6159 56.1135 40.1129 56.3394 40.5647 56.6557C41.0166 56.9268 41.4684 57.2431 41.875 57.6045C42.101 57.7853 42.2817 57.966 42.4624 58.1467C42.5528 58.2371 42.6432 58.3274 42.7335 58.4178L42.8691 58.5534L42.9594 58.6437L43.0046 58.6889L43.0498 58.7341C43.6372 59.457 43.5468 60.5414 42.8239 61.1288C42.101 61.8517 41.0166 61.7162 40.4292 60.9932Z" fill="#717E43"></path><path d="M0.126286 59.3668C0.126286 59.3668 14.3589 54.6227 18.606 50.5562C22.8532 46.5349 29.4047 43.5981 31.4831 41.5648C33.5615 39.5316 34.3748 37.5436 38.1702 35.917C41.9655 34.2452 48.4718 31.6698 50.6406 30.3143C52.8546 28.9589 54.933 27.6034 56.3788 27.6937C57.8247 27.7841 58.2765 29.0492 57.6439 29.9077C57.0114 30.721 52.2672 32.7994 48.8785 34.9682C45.4898 37.1369 40.9263 38.4472 37.2665 40.5256C33.6067 42.5589 27.8685 46.2187 26.8745 47.5742C25.8805 48.9296 26.513 48.9296 23.9376 50.8725C21.3622 52.7702 20.3682 52.4991 20.3682 53.2672C20.3682 53.9901 20.0971 56.4752 17.8831 56.2492C15.6692 56.0233 16.4373 54.0353 13.5907 56.2492C10.7442 58.4632 5.27712 61.2193 2.24988 62.0326C-0.777369 62.8459 0.126286 59.3668 0.126286 59.3668Z" fill="#5B2813"></path><path d="M33.2906 48.1163C31.9351 48.9748 30.5344 48.2971 31.3026 47.4838C32.0255 46.6705 30.5344 44.9084 30.3085 45.0891C30.0826 45.2698 30.3989 46.4898 29.4952 46.4898C28.5916 46.4898 27.1006 43.4173 26.1969 42.8751C25.2932 42.3329 22.6275 37.4532 21.9949 36.0074C21.5883 35.1489 20.8202 33.7934 20.5039 32.7994C20.1876 31.8505 20.052 30.9017 20.1876 29.9529C20.3231 28.9588 21.0912 28.3263 23.2148 28.6426C26.3324 29.0944 25.3384 30.1788 27.1006 33.9741C28.8627 37.8599 29.179 39.5768 29.9019 39.7575C30.6248 39.9383 34.3298 42.0167 35.1431 44.7728C35.866 47.5741 34.6461 47.2579 33.2906 48.1163Z" fill="#717E43"></path><path d="M56.3795 18.2505C55.6114 17.4824 54.2559 18.1149 54.3914 19.1993C54.4366 19.6963 54.3914 20.1481 54.0752 20.4192C53.3522 21.0066 47.2074 23.1754 46.9363 25.9767C46.7104 28.7781 50.1895 28.4166 51.1835 28.9136C52.1775 29.4106 53.6233 31.6698 55.6114 31.7149C57.5994 31.7601 58.4127 30.4498 58.9097 30.1335C59.4067 29.8173 58.6386 28.0551 57.9609 27.6937C57.3283 27.3322 55.6566 27.1967 53.8944 26.2478C52.1323 25.2538 51.7708 24.802 51.7708 24.802C51.7708 24.802 54.7077 24.9375 56.5602 23.7176C58.4579 22.4977 57.4639 19.8771 56.741 18.7927C56.6506 18.6119 56.515 18.4312 56.3795 18.2505Z" fill="#717E43"></path><path d="M63.3828 9.98207C63.3828 9.98207 62.0273 12.9641 64.919 15.7655C67.7655 18.5668 72.4193 16.2173 73.0067 13.2804C73.5941 10.3435 71.6061 8.67177 70.1602 8.0844C70.1602 8.0844 69.7536 7.94885 69.8439 8.49104C69.8439 8.49104 72.2386 10.3887 71.109 13.4611C69.9795 16.5788 66.2293 15.0877 65.3708 14.2744C64.5124 13.4611 63.6539 11.5183 64.2413 9.89171C64.2413 9.98207 63.8346 9.34951 63.3828 9.98207Z" fill="#4D561E"></path><path d="M70.0008 15.1019C71.801 13.8443 72.2409 11.3655 70.9833 9.56525C69.7257 7.76503 67.2468 7.32515 65.4466 8.58276C63.6464 9.84037 63.2065 12.3192 64.4641 14.1195C65.7217 15.9197 68.2006 16.3596 70.0008 15.1019Z" fill="#959D5B"></path><path d="M70.2498 9.53016C70.2498 9.53016 69.3009 7.90358 67.087 8.40059C64.873 8.8976 63.9242 11.1116 64.2405 12.4219C64.5567 13.7322 64.9634 12.9189 64.9634 12.1056C64.9634 11.2923 65.6411 9.25906 67.6292 9.1687C69.2106 9.07833 69.572 9.98199 70.1142 10.1175C70.7016 10.2531 70.2498 9.53016 70.2498 9.53016Z" fill="#A6B27D"></path><path d="M68.3073 10.2081C68.3073 10.2081 66.9518 10.7503 66.5903 11.5184C66.2289 12.2865 67.0421 12.6932 67.4488 12.2865C67.8554 11.8799 68.8494 11.5184 69.1205 11.0214C69.3465 10.4792 68.9398 9.89184 68.3073 10.2081Z" fill="#381314"></path><path d="M68.8939 10.7499C68.8939 11.021 68.668 11.247 68.3969 11.247C68.1258 11.247 67.8999 11.021 67.8999 10.7499C67.8999 10.4788 68.1258 10.2529 68.3969 10.2529C68.668 10.2529 68.8939 10.4788 68.8939 10.7499Z" fill="#6A3E43"></path><path d="M67.6301 11.5184C67.6301 11.6539 67.5397 11.7443 67.4041 11.7443C67.2686 11.7443 67.1782 11.6539 67.1782 11.5184C67.1782 11.3828 67.2686 11.2925 67.4041 11.2925C67.5397 11.2925 67.6301 11.3828 67.6301 11.5184Z" fill="#6A3E43"></path><path d="M62.6585 15.8106C62.6585 15.8106 62.7036 15.8558 62.7488 15.901L62.8392 15.9913C62.9296 16.0365 62.9747 16.0817 63.0651 16.1269C63.2007 16.2172 63.3362 16.3076 63.5169 16.398C63.8332 16.5787 64.1495 16.7594 64.4658 16.895C65.0983 17.1661 65.8213 17.392 66.499 17.4823C67.2219 17.6179 67.9448 17.6179 68.6678 17.6179C69.3907 17.5727 70.1136 17.4823 70.8365 17.3468C72.2824 17.0757 73.7282 16.6691 75.2193 16.3528C75.5807 16.2624 75.9422 16.2172 76.3488 16.1269C76.5296 16.0817 76.7103 16.0817 76.891 16.0365C77.0718 16.0365 77.2525 15.9913 77.4784 15.9913C78.2465 15.901 79.0146 15.901 79.7827 16.0365C79.8731 16.0365 79.9635 16.1269 79.9635 16.2624C79.9635 16.3528 79.8731 16.4431 79.7827 16.4431C79.0598 16.398 78.2917 16.398 77.5688 16.4883C77.388 16.4883 77.2073 16.5335 77.0266 16.5787C76.8458 16.6239 76.6651 16.6239 76.4844 16.6691C76.1229 16.7594 75.7615 16.8498 75.4 16.9402C73.9542 17.3016 72.5083 17.7986 71.0173 18.1149C70.2944 18.2956 69.5262 18.386 68.7581 18.4764C67.99 18.5216 67.2219 18.5216 66.4086 18.4312C65.6405 18.3408 64.8724 18.1149 64.1043 17.8438C63.7429 17.7083 63.3814 17.5275 63.0199 17.3468C62.8392 17.2564 62.6585 17.1661 62.5229 17.0305C62.4326 16.9853 62.3422 16.9402 62.2518 16.8498L62.1163 16.7594C62.0711 16.7142 62.0259 16.7142 61.9807 16.6691C61.7548 16.4883 61.7548 16.172 61.8904 15.9461C62.0711 15.675 62.3874 15.6299 62.6585 15.8106C62.6133 15.8106 62.6133 15.8106 62.6585 15.8106Z" fill="#4D561E"></path><g opacity="0.2"><path opacity="0.2" d="M52.9902 10.6145C52.9902 10.6145 44.9929 7.22581 35.2786 11.6989C25.5643 16.172 20.549 25.6152 20.6394 27.6936C20.6846 29.772 28.2301 14.681 38.9836 12.1959C49.7371 9.71086 51.2281 12.5122 53.0354 11.5182C53.8035 11.1115 52.9902 10.6145 52.9902 10.6145Z" fill="#A6B27D"></path></g></svg>