<svg xmlns="http://www.w3.org/2000/svg" width="80" height="80" viewBox="0 0 80 80" fill="none"><circle cx="40" cy="40" r="40" fill="#F7E3D6"></circle><path d="M45.6772 43.2169C45.6772 43.2169 47.7261 57.5591 49.4905 58.925C51.3117 60.3478 55.6371 59.8356 56.8892 58.3559C58.1413 56.8761 49.6612 42.5908 49.6612 42.5908L45.6772 43.2169Z" fill="#4D561E"></path><path d="M16.5376 45.7776C16.5376 45.7776 18.5865 60.1198 20.3508 61.4858C22.172 62.9086 26.4975 62.3964 27.7496 60.9166C29.0017 59.4938 20.5215 45.2085 20.5215 45.2085L16.5376 45.7776Z" fill="#4D561E"></path><path d="M56.8333 39.2327C56.8333 39.2327 56.6057 39.631 56.1504 40.2571C54.8414 41.9645 51.5973 45.5501 45.2799 47.9973C44.3693 48.3388 43.4017 48.6803 42.3773 48.9649C41.922 49.0787 41.4667 49.2494 40.9545 49.3633C40.5561 49.4771 40.2146 49.534 39.8162 49.6478C39.7593 49.6478 39.7024 49.6478 39.6455 49.7047C38.3364 49.9893 36.9136 50.217 35.3769 50.3877C35.32 50.3877 35.32 50.3877 35.2631 50.3877C34.8647 50.4446 34.4094 50.5015 33.9541 50.5015C32.9297 50.5584 31.8483 50.6154 30.7669 50.6723C30.084 50.6723 29.3441 50.6723 28.6611 50.6723C28.0351 50.6723 27.409 50.6154 26.783 50.5584C24.3357 50.3877 22.1161 49.9893 20.0672 49.4771C19.555 49.3633 19.0427 49.1925 18.5874 49.0787C18.0183 48.908 17.4492 48.7372 16.9369 48.5096C15.6279 48.0543 14.4327 47.542 13.2945 46.9729C9.02596 44.8671 6.06645 42.3629 4.35905 40.7124C3.16386 39.5741 2.59473 38.7773 2.59473 38.7773C25.7585 47.4851 56.7195 39.2327 56.8333 39.2327Z" fill="#FFD6B4"></path><path d="M39.6445 49.7048C38.3355 49.9894 36.9127 50.217 35.376 50.3878C35.3191 50.3878 35.3191 50.3878 35.2622 50.3878C37.1404 48.3389 37.9371 45.8916 37.9371 45.8916C38.7339 46.8022 39.3031 48.282 39.6445 49.7048Z" fill="#FFBB8C"></path><path d="M56.8333 39.2327C56.8333 39.2327 56.6057 39.631 56.1504 40.2571C51.3696 41.7938 43.1172 44.0134 33.385 44.6394C21.0347 45.3793 8.7983 42.0783 4.35905 40.7124C3.16386 39.5741 2.59473 38.7773 2.59473 38.7773C25.8155 47.542 56.8333 39.2327 56.8333 39.2327Z" fill="#FFBB8C"></path><path d="M18.6437 49.0785C18.7007 48.3387 18.7576 47.428 18.6437 46.5743C18.3592 44.6962 17.79 43.2164 17.79 43.2164C17.79 43.2164 18.4161 42.5335 19.2129 43.501C19.8389 44.2409 20.0666 47.9972 20.1804 49.4769C19.6113 49.3631 19.0991 49.1924 18.6437 49.0785Z" fill="#FFBB8C"></path><path d="M28.717 50.6725C28.091 50.6725 27.4649 50.6156 26.8389 50.5587C26.6681 48.0545 26.3267 44.1274 26.3267 44.1274L27.7495 44.2413L28.717 50.6725Z" fill="#FFBB8C"></path><path d="M35.3768 50.3876C34.9215 50.4445 34.4662 50.5014 33.954 50.5014C33.897 48.1111 33.271 43.7856 33.271 43.7856H34.1247C34.5231 44.6393 35.0922 48.4526 35.3768 50.3876Z" fill="#FFBB8C"></path><path d="M42.4344 48.9649C41.9791 49.0787 41.5238 49.2495 41.0116 49.3633C41.1823 48.6234 41.3531 47.7697 41.4669 47.4282C41.8653 45.6639 40.3286 43.1028 40.3286 43.1028L41.6945 43.0459C42.6621 44.981 42.6052 47.5421 42.4344 48.9649Z" fill="#FFBB8C"></path><path d="M79.4276 25.5166C79.3707 25.6874 79.2569 25.8581 79.1431 26.0288C78.9154 26.3703 78.6877 26.7118 78.4032 26.9964C76.9234 28.59 74.5331 29.6144 71.6305 30.2974C71.6305 30.2974 71.5736 42.3061 63.2642 43.729C57.8574 44.6396 54.9548 42.9891 53.5889 41.6801C53.8165 41.1679 54.1011 40.6556 54.4426 40.2003C55.0117 39.4035 55.8085 38.7206 56.5484 37.9807C57.4021 38.436 60.9876 40.0296 63.0934 37.4116C65.4838 34.4521 58.4834 23.0124 62.695 18.2317C66.8497 13.4509 77.7202 13.9063 79.5415 20.0529C80.2244 22.3295 80.1106 24.0938 79.4276 25.5166Z" fill="#717E43"></path><path d="M74.1881 21.0775C74.245 22.0451 74.6434 22.8418 75.1556 22.7849C75.6109 22.7849 76.0093 21.9312 75.9524 20.9637C75.8955 19.9962 75.4971 19.1994 74.9848 19.2563C74.5295 19.3132 74.1311 20.11 74.1881 21.0775Z" fill="#381314"></path><path d="M74.4185 20.3371C74.4185 20.6217 74.6461 20.7925 74.8738 20.7925C75.1583 20.7925 75.3291 20.5648 75.3291 20.3371C75.3291 20.0526 75.1014 19.8818 74.8738 19.8818C74.5892 19.8818 74.4185 20.1095 74.4185 20.3371Z" fill="#6A3E43"></path><path d="M75.1587 21.5892C75.1587 21.7599 75.2725 21.8738 75.4433 21.8738C75.614 21.8738 75.7278 21.7599 75.7278 21.5892C75.7278 21.4184 75.614 21.3046 75.4433 21.3046C75.2725 21.2477 75.1587 21.4184 75.1587 21.5892Z" fill="#6A3E43"></path><path d="M79.2564 23.3536C79.2564 23.6951 79.1426 23.9796 78.9719 23.9796C78.8011 23.9796 78.6873 23.6951 78.6304 23.3536C78.6304 23.0121 78.7442 22.7275 78.9149 22.7275C79.0857 22.7275 79.1995 23.0121 79.2564 23.3536Z" fill="#4D561E"></path><path d="M79.1447 26.0289C78.917 26.3704 78.6893 26.7119 78.4048 26.9965C76.8112 27.1103 72.9411 26.8826 71.1768 25.8013C71.4044 25.8013 75.8437 26.7119 79.1447 26.0289Z" fill="#4D561E"></path><path d="M63.4351 29.7851C63.4351 30.5819 63.9473 31.3787 64.7441 31.6063C65.1994 31.7202 65.7116 31.7202 66.1669 31.2648C67.7036 29.8989 65.9393 29.2729 66.3376 27.5655C66.6791 25.9719 63.4351 26.3134 63.4351 29.7851Z" fill="#4D561E"></path><path d="M66.8495 22.6139C66.4511 22.2155 65.825 22.3863 65.5974 22.8416C65.3697 23.3538 65.0283 24.2075 65.6543 24.7197C66.508 25.4027 66.2804 24.4921 66.9064 23.6384C67.191 23.24 67.0771 22.8416 66.8495 22.6139Z" fill="#4D561E"></path><path d="M64.3453 18.5163C64.3453 18.5163 65.825 18.1749 65.4836 19.0855C65.1421 19.9392 64.8575 20.8498 64.4591 21.7604C64.0607 22.671 63.0932 23.0125 62.6379 22.045C62.1257 21.0774 63.5485 18.5732 64.3453 18.5163Z" fill="#4D561E"></path><path d="M64.1183 24.7201C64.1753 24.3786 63.9476 24.0371 63.6061 24.0371C63.4923 24.0371 63.3216 24.094 63.2077 24.2648C62.9232 24.7201 62.5248 25.6307 62.9801 25.6876C63.3785 25.6876 64.0045 25.2892 64.1183 24.7201Z" fill="#4D561E"></path><path d="M71.6305 30.2972C71.6305 30.2972 71.5736 42.3059 63.2642 43.7288C57.8574 44.6394 54.9548 42.9889 53.5889 41.6799C53.8165 41.1677 54.1011 40.6554 54.4426 40.2001C57.9143 42.3059 64.4024 43.2166 67.7603 38.7773C71.4028 33.9966 68.8986 29.3296 68.8417 29.2158C69.8092 29.9557 71.6305 30.2972 71.6305 30.2972Z" fill="#4D561E"></path><path d="M58.3118 37.0135C57.9703 37.2411 57.5719 37.4119 57.1735 37.5826C38.8473 44.3553 20.1797 44.583 1.34131 38.6071C1.91044 37.4688 3.56094 33.6556 6.57736 29.5578C10.9028 23.6957 18.1308 17.0937 29.0582 16.8661C41.3515 16.5815 49.604 24.2648 54.1002 30.2408C56.9459 33.9971 58.3118 37.0135 58.3118 37.0135Z" fill="#717E43"></path><path d="M11.1869 33.257C11.1869 33.3139 11.1299 33.3708 11.1299 33.4277C11.1299 33.4277 11.1299 33.4846 11.073 33.4846C11.073 33.5415 11.0161 33.5985 10.9592 33.6554L10.9023 33.7123C10.8454 33.7692 10.8454 33.8261 10.7885 33.883C9.87784 34.9075 7.94278 36.2165 5.83698 35.4197C4.47105 34.9075 4.2434 33.9399 4.30031 33.3708V33.3139C4.30031 33.257 4.30031 33.2001 4.30031 33.1431V33.0862V33.0293V32.9724C4.30031 32.8586 4.35723 32.8017 4.35723 32.8017C4.41414 32.7447 5.32476 30.9235 6.3492 29.6714C6.63377 29.273 6.91834 28.9315 7.2029 28.7039C8.51192 27.5656 8.91031 29.5576 10.1055 30.4113C11.1299 30.9804 11.5852 32.2894 11.1869 33.257Z" fill="#959D5B"></path><path d="M10.6191 24.8908C10.6191 24.8908 12.668 21.7605 15.3999 20.4515C18.1886 19.1425 19.3269 18.9149 20.1237 19.4271C20.9205 19.9393 19.8391 22.785 20.2375 24.6631C20.6359 26.5413 18.0748 27.6226 15.2291 27.4519C12.4404 27.3381 10.6761 26.8259 10.6191 24.8908Z" fill="#959D5B"></path><path d="M17.6194 29.7856C17.6194 29.7856 14.4322 28.5335 14.0338 29.8425C13.6354 31.1515 15.1721 32.5744 15.1152 34.4525C15.0583 36.3307 17.6763 34.2818 20.3512 34.3956C22.9692 34.5094 23.4815 30.2978 17.6194 29.7856Z" fill="#959D5B"></path><path d="M23.3679 17.6059C23.3679 17.6059 25.5306 16.6953 28.0917 16.6384C30.6529 16.5814 32.3603 16.9798 32.9863 17.0368C33.6693 17.1506 32.1895 19.3133 32.1326 21.7037C32.0757 24.1509 31.5635 26.0291 28.8316 25.5738C26.0998 25.0616 25.929 22.8989 24.2785 22.2159C22.5711 21.6468 22.9126 18.0612 23.3679 17.6059Z" fill="#959D5B"></path><path d="M26.0415 26.655C26.0415 26.655 24.9033 25.0614 23.9357 25.1753C23.0251 25.2891 23.3666 27.338 22.8544 28.0209C22.3421 28.7039 22.7405 30.1267 24.5049 30.0698C26.2692 29.8991 26.9521 27.6225 26.0415 26.655Z" fill="#959D5B"></path><path d="M45.2226 28.1347C45.2226 28.1347 47.1577 28.4762 47.4992 29.3868C47.8407 30.2974 45.7918 30.8096 45.3934 31.5495C44.995 32.2894 43.5721 32.5739 42.8323 30.9234C42.1493 29.3299 43.9705 27.7363 45.2226 28.1347Z" fill="#959D5B"></path><path d="M37.4828 18.0046C37.4828 18.0046 35.7754 20.5088 36.5722 22.8992C37.369 25.2896 36.2876 27.3385 37.8812 27.623C39.4748 27.8507 41.6375 26.2002 44.3694 25.9156C47.1012 25.631 46.1906 23.0699 46.1906 22.387C46.0768 21.704 40.2147 17.777 37.4828 18.0046Z" fill="#959D5B"></path><path d="M36.4565 29.7282C36.4565 29.7282 35.9443 27.1671 34.2369 27.1102C32.5295 27.0533 31.8465 27.3378 30.3099 28.8745C28.7732 30.4112 27.2365 33.0292 29.2285 33.8829C31.2205 34.7366 32.3018 35.4196 35.0337 35.0212C37.8794 34.5658 36.4565 29.7282 36.4565 29.7282Z" fill="#959D5B"></path><path d="M56.2632 33.4277C56.2632 33.4277 56.0356 34.7367 53.6452 34.7367C51.3118 34.7367 46.1326 36.1595 46.531 34.6229V34.566V34.509V34.4521V34.3952C46.531 34.3952 46.531 34.3383 46.5879 34.3383C46.5879 34.3383 46.5879 34.2814 46.6448 34.2814C46.6448 34.2814 46.6448 34.2245 46.7018 34.2245L46.7587 34.1676C46.7587 34.1676 46.7587 34.1106 46.8156 34.1106C46.9294 33.9968 47.0432 33.883 47.1571 33.7122L47.214 33.6553L47.2709 33.5984L47.3278 33.5415C47.4416 33.4846 47.4985 33.3708 47.6124 33.3139L47.6693 33.2569C47.6693 33.2569 47.6693 33.2569 47.7262 33.2569C47.7831 33.2 47.84 33.2 47.8969 33.1431C48.1815 32.9724 48.523 32.7447 48.8645 32.574C49.6044 32.1187 50.3442 31.6634 50.7426 31.0942C51.7671 29.6714 53.5883 29.6714 53.5883 29.6714C53.8729 29.7283 54.1574 29.899 54.3851 30.1836C55.4095 31.0942 56.2632 33.3139 56.2632 33.4277Z" fill="#959D5B"></path><path d="M39.9298 33.8832C39.9298 33.8832 39.133 33.8832 37.8809 35.5337C36.6288 37.1842 38.3931 38.4932 39.9867 37.7533C41.5803 37.0703 43.5723 37.8102 44.0276 36.8996C44.4829 35.989 42.0356 33.371 39.9298 33.8832Z" fill="#959D5B"></path><path d="M28.7752 36.1028C28.7752 36.1028 26.6694 33.2571 24.6775 34.5092C22.6855 35.8183 20.2382 35.7044 20.8074 36.9565C21.3765 38.2086 25.0759 38.7778 27.2955 38.4363C29.572 38.1517 28.7752 36.1028 28.7752 36.1028Z" fill="#959D5B"></path><path d="M60.8735 36.1598C60.532 35.4769 59.7921 35.1923 59.1092 35.42C40.2708 41.5666 21.1478 41.6804 1.85415 36.046C1.17119 35.8753 0.431311 36.1598 0.146743 36.7859C0.146743 36.7859 0.146743 36.7859 0.146743 36.8428C-0.251652 37.6396 0.203657 38.6071 1.00045 38.8348C20.9202 44.8676 40.6123 44.6969 60.0198 38.2087C60.8735 37.9242 61.2719 37.0135 60.8735 36.1598C60.8735 36.2167 60.8735 36.1598 60.8735 36.1598Z" fill="#959D5B"></path><path d="M17.7892 45.3223C17.7892 45.3223 18.0168 60.1768 14.2605 62.1687C10.5042 64.1607 7.43089 63.7623 5.09743 61.4858C3.78842 60.2337 11.3579 44.4117 11.3579 44.4117C13.1222 43.6149 16.6509 44.7532 17.7892 45.3223Z" fill="#717E43"></path><path d="M7.88533 58.8109C7.88533 58.8109 7.3162 56.9328 7.94224 56.2498C8.56829 55.5668 8.45447 58.2418 8.85286 58.9247C9.30817 59.6646 8.39755 59.8923 7.88533 58.8109Z" fill="#4D561E"></path><path d="M9.5949 52.5503C9.5949 52.5503 11.1316 50.8429 11.8145 52.2088C12.4975 53.6317 11.0177 54.087 11.0177 55.4529C10.9608 56.7619 8.22897 55.6237 9.5949 52.5503Z" fill="#4D561E"></path><path d="M10.9596 57.9003C10.9596 57.9003 11.2442 58.754 11.6995 58.3556C12.1548 57.9572 11.6995 57.5588 11.8702 57.1035C12.0409 56.5913 10.9027 56.5913 10.9596 57.9003Z" fill="#4D561E"></path><path d="M13.7475 49.9889C14.089 50.2165 14.0321 50.7288 13.6906 50.9564C13.3491 51.1841 12.7231 51.4686 12.2678 51.0703C11.6417 50.5011 12.3816 50.558 13.0077 50.0458C13.2922 49.8182 13.5768 49.8182 13.7475 49.9889Z" fill="#4D561E"></path><path d="M13.6917 46.973C13.6917 46.973 14.7162 47.4283 14.147 47.8267C13.521 48.1682 12.9518 48.6235 12.3258 49.0219C11.6997 49.4203 10.9599 49.1926 11.0737 48.3958C11.2444 47.5421 13.1795 46.6315 13.6917 46.973Z" fill="#4D561E"></path><path d="M9.99238 49.9322C10.22 49.8184 10.5046 49.9891 10.5615 50.2168C10.5615 50.3306 10.5615 50.4444 10.4477 50.5014C10.1631 50.7859 9.48015 51.1274 9.42324 50.7859C9.30941 50.5583 9.59398 50.103 9.99238 49.9322Z" fill="#4D561E"></path><path d="M37.9948 45.8917C37.9948 45.8917 37.7672 60.7461 41.5235 62.7381C45.2798 64.73 48.3531 64.3317 50.6866 62.0551C51.9956 60.803 44.4261 44.981 44.4261 44.981C42.6618 44.1843 39.1331 45.3225 37.9948 45.8917Z" fill="#717E43"></path><path d="M48.0683 60.5186C48.0683 60.5186 48.6374 58.6404 48.0114 58.0144C47.3853 57.3883 47.5561 60.0063 47.1007 60.6893C46.6454 61.3723 47.5561 61.5999 48.0683 60.5186Z" fill="#4D561E"></path><path d="M46.2461 54.258C46.2461 54.258 44.6526 52.5506 44.0265 53.9734C43.4005 55.3962 44.8233 55.8516 44.8802 57.1606C44.9371 58.5265 47.669 57.2744 46.2461 54.258Z" fill="#4D561E"></path><path d="M44.939 59.6081C44.939 59.6081 44.6544 60.4618 44.1991 60.0634C43.7438 59.665 44.1991 59.2666 44.0284 58.8113C43.8576 58.356 44.9959 58.356 44.939 59.6081Z" fill="#4D561E"></path><path d="M42.0352 51.7535C41.7507 52.0381 41.8076 52.4934 42.1491 52.7211C42.4905 52.9487 43.1166 53.2333 43.5719 52.8349C44.141 52.2658 43.4581 52.3796 42.832 51.8105C42.5475 51.5828 42.2629 51.5828 42.0352 51.7535Z" fill="#4D561E"></path><path d="M42.0357 48.7373C42.0357 48.7373 41.0112 49.1926 41.5803 49.591C42.2064 49.9325 42.7755 50.3878 43.4016 50.7862C44.0276 51.1846 44.7675 50.9569 44.6537 50.1601C44.5398 49.2495 42.5479 48.3389 42.0357 48.7373Z" fill="#4D561E"></path><path d="M45.8479 51.6401C45.6203 51.5263 45.3357 51.6971 45.2788 51.9816C45.2788 52.0955 45.2788 52.2093 45.3926 52.2662C45.6772 52.5508 46.3602 52.8922 46.4171 52.5508C46.5309 52.2662 46.2463 51.8109 45.8479 51.6401Z" fill="#4D561E"></path></svg>